<svg xmlns="http://www.w3.org/2000/svg" viewBox="0 0 760 760">
<path
class="v6don-fg-round"
d="
M380,0 a380,380 0 0 0 0,760 a380,380 0 0 0 0-760z
M380,24a356,356 0 0 1 0,712 a356,356 0 0 1 0-712z
M 376.5,663.11447 C 348.59368,657.05653 330.04804,639.45904 311.56576,601.5 c -6.60465,-13.5647 -11.16483,-26.75015 -12.72725,-36.80004 -1.95395,-12.5683 0.56944,-15.04174 10.82858,-10.61424 14.61253,6.30627 42.87531,8.52412 69.83291,5.47995 28.99888,-3.27467 47.21037,-7.8279 69.69901,-17.42611 12.76928,-5.44996 15.56642,-5.42763 18.44931,0.14725 2.02741,3.92059 1.96196,16.50364 -0.17167,33.00311 -2.00735,15.52297 -3.62509,22.51434 -7.42031,32.06826 -7.64717,19.25062 -17.16496,34.89968 -27.48619,45.19252 -7.90142,7.87969 -9.53302,8.58837 -25.21518,10.9521 -12.56425,1.89377 -20.82099,1.78986 -30.85497,-0.38833 z
m 27,-37.04006 c 10.66904,-3.40282 13.79747,-5.1657 19.48862,-10.9819 5.87106,-6.00006 12.6178,-17.75969 15.25667,-26.59251 3.23588,-10.83116 3.94755,-15.27116 2.79341,-17.42769 -1.99933,-3.73579 -6.92354,-2.67789 -20.55261,4.41543 -23.01598,11.9788 -32.49329,14.89704 -53.5302,16.48296 -10.849,0.81788 -16.2814,0.79583 -21.77227,-0.0884 -6.47895,-1.0433 -7.50597,-0.98856 -8.97281,0.47828 -1.54191,1.54191 -1.52169,1.90663 0.29245,5.2753 3.33925,6.20061 19.34973,21.60046 25.99674,25.00524 5.2641,2.69641 7.83223,3.56884 17,5.7751 3.87916,0.93354 18.07296,-0.45145 24,-2.34185 z
M 199.89788,593.72444 C 187.68596,581.183 185.52356,562.71468 185.62436,549 c 0.31792,-34.51256 15.05914,-68.41273 35.02366,-80.5434 4.11761,-2.50191 16.11661,-5.14463 18.75746,-4.13125 3.139,1.20455 1.75179,5.39032 -3.76737,11.36765 -6.66401,7.21722 -9.03487,11.82871 -12.1183,23.57093 -5.65568,21.5378 -7.81997,42.79864 -7.33659,72.07067 0.0502,10.92719 2.10939,16.67976 -1.58074,20.57474 -3.69013,3.89498 -9.95391,4.99663 -14.7046,1.8151 z
m 344.69101,-6.80117 c -2.55617,-3.03784 -2.58919,-3.28742 -2.61276,-19.75 -0.0436,-30.48364 -1.55477,-50.33385 -4.81182,-63.208 C 534.394,493.01507 529.35658,480.95644 526.9246,479.4534 524.89822,478.20103 520,469.65479 520,467.37161 c 0,-3.09124 2.89989,-3.76124 9.69633,-2.24026 11.23392,2.51404 19.93842,11.0917 29.03303,28.60998 11.11527,21.41053 14.7376,36.07785 14.75836,59.75867 0.0119,13.60784 -0.0749,14.18408 -3.10169,20.57158 -6.3325,13.36383 -19.74413,20.04528 -25.79714,12.85169 z
M 288.91495,453.0249 c -11.28099,-15.80812 -1.5979,-11.40012 8.49078,-10.29235 51.86111,8.91132 91.96714,16.8479 124.21434,-24.44885 8.63136,-12.75548 -0.92483,-40.44656 -3.86061,-53.2837 -4.65864,-25.62492 -12.47229,-45.33426 -14.78569,-78.18771 -2.56515,-30.61945 2.11585,-60.26948 15.64732,-86.48987 8.3064,-15.77155 20.01706,-28.05235 38.12974,-35.82179 23.69076,-10.01525 57.68538,-13.7295 77.43757,-8.46082 11.34163,3.02525 31.78665,16.48462 30.59423,20.14079 -1.41468,4.33763 -17.01102,6.76296 -50.28263,7.81927 -29.35411,0.93195 -36.7368,1.97564 -50,7.06851 -21.46806,8.24342 -36.08154,25.20889 -41.46307,48.13637 -9.83495,41.48112 -5.87734,70.7386 9.52223,103.51816 9.04796,17.44289 23.29425,59.04742 17.84546,89.34559 -11.5507,53.62161 -131.92911,54.4778 -161.48967,20.9564 z
M 275.5,267.93188 c -15.01126,-4.71774 -38.34175,-5.09877 -57,-0.93092 -12.66172,2.82836 -22.76419,2.39815 -30.87427,-1.31477 -10.97296,-5.02359 -10.76928,-11.38939 0.79896,-24.97066 10.76519,-12.63847 22.8208,-15.60246 49.78147,-12.23928 12.76105,1.59187 15.90249,2.61048 23.95235,7.76656 14.18591,9.08632 30.32751,27.44229 28.44523,32.34745 -0.75592,1.96989 -7.70472,1.66699 -15.10374,-0.65838 z
m 267,-1.62631 c -4.83379,-0.98364 -16.41254,-2.39315 -36.64729,-2.4419 -15.58621,-0.0376 -27.57995,2.31931 -29.31607,1.04509 -1.42741,-1.42741 0.99436,-7.55582 5.6146,-12.05608 3.47541,-3.38515 8.5445,-6.62721 16.20322,-10.36318 27.76094,-13.54193 50.20794,-13.94773 66.52662,-1.20266 C 571.42261,246.39585 577,254.0594 577,257.9387 c 0,8.3349 -15.8124,12.16969 -34.5,8.36687 z
M 300,205.12891 c -7.77468,-2.2195 -16.25989,-5.46409 -28.7399,-10.98959 -5.08194,-2.25002 -12.19737,-4.77683 -15.81205,-5.61514 -14.12322,-3.27539 -40.0118,-0.93235 -55.41146,5.01501 C 195.10793,195.44263 189.4987,197 187.57163,197 c -8.77792,0 -14.86555,-6.73792 -12.67958,-14.03404 1.84957,-6.17329 11.33685,-13.50997 23.10795,-17.86978 6.99322,-2.59016 26.38958,-6.75835 35.5,-7.62879 12.37305,-1.18216 28.305,1.05555 43.5,6.10976 19.86013,6.60595 30.49046,12.07331 37.92012,19.50297 7.46237,7.46237 9.4694,11.03001 8.65307,15.38143 -1.46126,7.78921 -10.59465,10.37246 -23.57319,6.66736 z"
/>
</svg>
