<svg xmlns="http://www.w3.org/2000/svg" viewBox="0 0 64 64"><g fill="none" fill-rule="evenodd"><circle fill="#F6A623" cx="32" cy="32" r="32"/><circle cx="32" cy="32" r="30" stroke="#000000" stroke-width="4"/><path fill="#000000" d="M20,13.99923 C20,11.7905162 21.7953562,10 24,10 L24,10 C26.209139,10 28,11.7924676 28,13.99923 L28,26.00077 C28,28.2094838 26.2046438,30 24,30 L24,30 C21.790861,30 20,28.2075324 20,26.00077 L20,13.99923 Z"/><rect width="8" height="16" x="37" y="12" fill="#000000" rx="4"/><path fill="#000000" d="M20,37.99923 C20,35.7905162 21.7953562,34 24,34 L24,34 C26.209139,34 28,35.7873299 28,37.9931023 L28,44.0068977 C28,46.2122272 29.7996535,48 31.9999433,48 L33.0000567,48 C35.2091644,48 36.9994667,46.2126701 36.9988085,44.0068977 L36.997014,37.9931023 C36.996356,35.7877728 38.7921162,34 40.9979113,34 L40.9979113,34 C43.2082038,34 45,35.7924676 45,37.99923 L45,44 C45,49.5228475 40.530501,54 34.9935777,54 L30.0064223,54 C24.4800279,54 20,49.5240618 20,44 L20,37.99923 Z"/></g></svg>
