<?xml version="1.0" encoding="UTF-8" standalone="no"?>
<svg xmlns="http://www.w3.org/2000/svg" viewBox='0 0 341 341'>
<path id='biwako' fill='#257ec0' d="m 218,16.499986 1,3 -7,8 1,7 h 4 l -5,14 -4,-2 2,-4 -1,-5 -7,2 v -2 l -2,-1 -1,-11 4,1 1,-4 -3,-2 -2,2 -1,-3 -4,3 -6,19 -5,3 -2,-1 -4,-9 h -2 l -7,5 -2,4 -4,1 -3,4 -3,6 3,6 v 8 l 1,1 -4,2 -2,4 v 12 l 5,2 4,7 7,5.000004 3,15 3,5 -1,2 v 3 l -1,2 -2,-3 v 3 -2 1 l -1,-1 -4,1 -8,9 -6,-1 -5,2 -5,5 2,9 -22,14 -3,7 -3,2 -2,2 v 3 l 1,4 -12,9 -2,5 -4,1 -5,10 -1,6 4,9 6,6 -5,6 -1,5 4,8 -1,-1 -1,6 -3,1 -4,8 -2,-1 -1,1 1,1 -3,-1 v 2 l 3,2 -3,3 -4,3 h -1 l 1,3 -5,5 2,1 -2,3 v 2 l -4.000001,1 -1,6 -2,2 v 3 l -3,2 -1,9 2,2 -4,2 -1,4 7,6 9.000001,1 2,5 v 3 l 5,8 h 1 l 1,-9 -1,-3 4,-1 3,-6 -1,-3 -2,-1 1,-3 v -3 l -2,-2 v -3 l -4,-1 6,-6 v -3 l 6,-5 1,-5 v 2 h 3 l 2,-1 -4,-8 5,1 -2,2 h 4 l 1,-3 v -4 l -3,-3 -3,-4 4,-14 -1,-2 2,-1 -2,-1 2,-2 4,-1 5,3 4,1 5,-6 v -3 l 4,-6 7,4 -1,1 4,1 3,-2 3,-5 4,-1 12,4 4,-1 4,-6 v -3 h -3 l -1,-3 1,-6 2,-2 -1,-4 3,-1 1,-4 3,-2 7,1 2,-2 -2,-3 h -3 l 1,-3 3,-1 1,2 h 5 l 4,-2 1,-2 -1,-5 2,-1 7,-1 11,-4 5,-4 26,-16 5,-7 4,-1 9,-7 7,-9 -2,-4 8,-12 1,-5 -1,-2 4,-8 V 97.499986 l -4,-6 h -1 l -1,1 v -1 h -2 l -3,-5 -6,-4 -3,1 -7,-2 1,1 -4,1 -1,-1 1,-1 -2,-1 2,-3 -2,-6 -10,-12 1,-5 -4,-6 -1,-4 v -2 l 6,-2 -3,-10 v -4 l -2,-2 1,-3 v -8 l -5,-4.9999999 -3,3.9999999 -3,-2 -2,-7.9999999 2,-1 -3,1 V 0.49998615 l -2,2.99999995 2,6 -1,2.9999999 -1,1 z m -10,46 2,-4 v 4 z M 169,194.49999 h 5 l -1,2 -3,3 -3,-1 -3,3 h 2 l -5,1 2,-2 1,-6 z m -81,129 1,-4 h 3 v 3 l -1,3 -3,1 z m 5,-26 h 3 l -2,-1 z m 71,-167 -4,-2 v 1 2 z"
/>
<script><![CDATA[
var h = document.defaultView.location.hash;
if (h) {
  var color = { g: '#3bc026', y: '#c0b326', o: '#cf6630', r: '#c02534', p: '#b025c1', w: '#eaeaeb', };
  document.getElementById("biwako").setAttribute('fill', color[h.slice(1)]);
}
]]></script>
</svg>
