<svg xmlns:svg="http://www.w3.org/2000/svg" xmlns="http://www.w3.org/2000/svg" width="64" height="64" version="1.1"><style>.s0{fill:none;stroke-linecap:round;stroke-width:6;stroke:#f0f;}.s1{fill:none;stroke-linecap:round;stroke-linejoin:round;stroke-width:6;stroke:#f0f;}</style><g transform="translate(0,-988.36218)"><path d="m8 1008.4 16 0M40 1008.4l16 0M40 1008.4l16 0M40 1008.4l16 0M40 1008.4l16 0M40 1008.4l16 0" class="s0"/><path d="m40 1008.4 16 0" class="s0"/><path d="m52 12-12 8 12 8M12 1000.4l12 8-12 8M12 1000.4l12 8-12 8M12 1000.4l12 8-12 8M12 1000.4l12 8-12 8M12 1000.4l12 8-12 8" transform="translate(0,988.36218)" class="s1"/><path d="m12 1000.4 12 8-12 8" class="s1"/><path d="m16 40 32 0c0 20-32 20-32 0z" transform="translate(0,988.36218)" class="s1"/></g></svg>