<?xml version="1.0" encoding="UTF-8" standalone="no"?>
<svg
   xmlns="http://www.w3.org/2000/svg"
   xmlns:xlink="http://www.w3.org/1999/xlink"
   width="46px"
   height="46px"
   viewBox="31 31 450 450"
>
<style>
.ue {
stroke: #189efc;
stroke-width: 38;
stroke-linecap: round;
fill:none;
}
#mstdn{
fill:#189efc;
}
</style>

<symbol viewBox="0 0 1000 1000" id='mstdn'>
<path
d="M500,0a500,500 0 0 0 0,1000 500,500 0 0 0 0,-1000zM580,562 a80,80 0 0 1  -160,0v-202 a80,80 0 0 1  80,-80h107c-19.071,13.424 -26.187,51.016 -27,73.84zM500,332  a28,28 0 0 0 0,56 28,28 0 0 0 0,-56z m0,100 a28,28 0 0 0 0,56 28,28 0 0 0 0,-56z m0,100 a28,28 0 0 0 0,56 28,28 0 0 0 0,-56z  M141,420 a80,80 0 0 1  160,0v208.16c0.933,22.827 8.049,60.42 27,73.84h-107 a80,80 0 0 1  -80,-80zm80,-26  a28,28 0 0 0 0,56 28,28 0 0 0 0,-56z m0,100 a28,28 0 0 0 0,56 28,28 0 0 0 0,-56z m0,100 a28,28 0 0 0 0,56 28,28 0 0 0 0,-56z  M699,420 a80,80 0 0 1  160,0v200 a80,80 0 0 1  -80,80h-107c19.071,-13.424 26.187,-51.016 27,-73.84zm80,-26  a28,28 0 0 0 0,56 28,28 0 0 0 0,-56z m0,100 a28,28 0 0 0 0,56 28,28 0 0 0 0,-56z m0,100 a28,28 0 0 0 0,56 28,28 0 0 0 0,-56z  "/>
</symbol>
<g>
<path class='ue' d="M 355.107,154.025 349.388,128.48 C 326.67893,39.253095 183.79889,40.481121 162.49,128.156 l -36.071,161.3" />
<use xlink:href='#mstdn' x='104.55' y='166.05' width='302.9' height='302.9'/>
</g>
</svg>
